<svg width="115" height="15" viewBox="0 0 115 15" fill="none" xmlns="http://www.w3.org/2000/svg">
<path d="M10.288 0.0599995V1.54H6.48797V14H4.66797V1.54H0.847969V0.0599995H10.288ZM33.3044 14.18C32.2777 14.18 31.3444 13.9467 30.5044 13.48C29.6777 13.0133 29.0244 12.3533 28.5444 11.5C28.0777 10.6333 27.8444 9.63333 27.8444 8.5C27.8444 7.38 28.0844 6.39333 28.5644 5.54C29.0577 4.67333 29.7244 4.01333 30.5644 3.56C31.4044 3.09333 32.3444 2.86 33.3844 2.86C34.4244 2.86 35.3644 3.09333 36.2044 3.56C37.0444 4.01333 37.7044 4.66667 38.1844 5.52C38.6777 6.37333 38.9244 7.36667 38.9244 8.5C38.9244 9.63333 38.671 10.6333 38.1644 11.5C37.671 12.3533 36.9977 13.0133 36.1444 13.48C35.291 13.9467 34.3444 14.18 33.3044 14.18ZM33.3044 12.58C33.9577 12.58 34.571 12.4267 35.1444 12.12C35.7177 11.8133 36.1777 11.3533 36.5244 10.74C36.8844 10.1267 37.0644 9.38 37.0644 8.5C37.0644 7.62 36.891 6.87333 36.5444 6.26C36.1977 5.64667 35.7444 5.19333 35.1844 4.9C34.6244 4.59333 34.0177 4.44 33.3644 4.44C32.6977 4.44 32.0844 4.59333 31.5244 4.9C30.9777 5.19333 30.5377 5.64667 30.2044 6.26C29.871 6.87333 29.7044 7.62 29.7044 8.5C29.7044 9.39333 29.8644 10.1467 30.1844 10.76C30.5177 11.3733 30.9577 11.8333 31.5044 12.14C32.051 12.4333 32.651 12.58 33.3044 12.58Z" fill="black"/>
<path d="M75.8255 2.84C76.6788 2.84 77.4388 3.02 78.1055 3.38C78.7721 3.72667 79.2988 4.25333 79.6855 4.96C80.0721 5.66667 80.2655 6.52667 80.2655 7.54V14H78.4655V7.8C78.4655 6.70667 78.1921 5.87333 77.6455 5.3C77.1121 4.71333 76.3855 4.42 75.4655 4.42C74.5188 4.42 73.7655 4.72667 73.2055 5.34C72.6455 5.94 72.3655 6.81333 72.3655 7.96V14H70.5655V7.8C70.5655 6.70667 70.2921 5.87333 69.7455 5.3C69.2121 4.71333 68.4855 4.42 67.5655 4.42C66.6188 4.42 65.8655 4.72667 65.3055 5.34C64.7455 5.94 64.4655 6.81333 64.4655 7.96V14H62.6455V3.04H64.4655V4.62C64.8255 4.04667 65.3055 3.60667 65.9055 3.3C66.5188 2.99333 67.1921 2.84 67.9255 2.84C68.8455 2.84 69.6588 3.04667 70.3655 3.46C71.0721 3.87333 71.5988 4.48 71.9455 5.28C72.2521 4.50667 72.7588 3.90667 73.4655 3.48C74.1721 3.05333 74.9588 2.84 75.8255 2.84ZM109.359 14.18C108.332 14.18 107.399 13.9467 106.559 13.48C105.732 13.0133 105.079 12.3533 104.599 11.5C104.132 10.6333 103.899 9.63333 103.899 8.5C103.899 7.38 104.139 6.39333 104.619 5.54C105.112 4.67333 105.779 4.01333 106.619 3.56C107.459 3.09333 108.399 2.86 109.439 2.86C110.479 2.86 111.419 3.09333 112.259 3.56C113.099 4.01333 113.759 4.66667 114.239 5.52C114.732 6.37333 114.979 7.36667 114.979 8.5C114.979 9.63333 114.726 10.6333 114.219 11.5C113.726 12.3533 113.052 13.0133 112.199 13.48C111.346 13.9467 110.399 14.18 109.359 14.18ZM109.359 12.58C110.012 12.58 110.626 12.4267 111.199 12.12C111.772 11.8133 112.232 11.3533 112.579 10.74C112.939 10.1267 113.119 9.38 113.119 8.5C113.119 7.62 112.946 6.87333 112.599 6.26C112.252 5.64667 111.799 5.19333 111.239 4.9C110.679 4.59333 110.072 4.44 109.419 4.44C108.752 4.44 108.139 4.59333 107.579 4.9C107.032 5.19333 106.592 5.64667 106.259 6.26C105.926 6.87333 105.759 7.62 105.759 8.5C105.759 9.39333 105.919 10.1467 106.239 10.76C106.572 11.3733 107.012 11.8333 107.559 12.14C108.106 12.4333 108.706 12.58 109.359 12.58Z" fill="white"/>
</svg>
