<svg width="178" height="14" viewBox="0 0 178 14" fill="none" xmlns="http://www.w3.org/2000/svg">
<path d="M10.6934 1.151L6.83438 8.529V13H5.28738V8.529L1.41138 1.151H3.12838L6.05238 7.152L8.97638 1.151H10.6934ZM17.6971 13.119C16.5978 13.119 15.5948 12.864 14.6881 12.354C13.7814 11.8327 13.0618 11.113 12.5291 10.195C12.0078 9.26567 11.7471 8.223 11.7471 7.067C11.7471 5.911 12.0078 4.874 12.5291 3.956C13.0618 3.02667 13.7814 2.307 14.6881 1.797C15.5948 1.27567 16.5978 1.015 17.6971 1.015C18.8078 1.015 19.8164 1.27567 20.7231 1.797C21.6298 2.307 22.3438 3.021 22.8651 3.939C23.3864 4.857 23.6471 5.89967 23.6471 7.067C23.6471 8.23433 23.3864 9.277 22.8651 10.195C22.3438 11.113 21.6298 11.8327 20.7231 12.354C19.8164 12.864 18.8078 13.119 17.6971 13.119ZM17.6971 11.776C18.5244 11.776 19.2668 11.5833 19.9241 11.198C20.5928 10.8127 21.1141 10.263 21.4881 9.549C21.8734 8.835 22.0661 8.00767 22.0661 7.067C22.0661 6.115 21.8734 5.28767 21.4881 4.585C21.1141 3.871 20.5984 3.32133 19.9411 2.936C19.2838 2.55067 18.5358 2.358 17.6971 2.358C16.8584 2.358 16.1104 2.55067 15.4531 2.936C14.7958 3.32133 14.2744 3.871 13.8891 4.585C13.5151 5.28767 13.3281 6.115 13.3281 7.067C13.3281 8.00767 13.5151 8.835 13.8891 9.549C14.2744 10.263 14.7958 10.8127 15.4531 11.198C16.1218 11.5833 16.8698 11.776 17.6971 11.776ZM27.2024 1.151V8.648C27.2024 9.702 27.4574 10.484 27.9674 10.994C28.4887 11.504 29.2084 11.759 30.1264 11.759C31.033 11.759 31.7414 11.504 32.2514 10.994C32.7727 10.484 33.0334 9.702 33.0334 8.648V1.151H34.5804V8.631C34.5804 9.617 34.382 10.45 33.9854 11.13C33.5887 11.7987 33.0504 12.2973 32.3704 12.626C31.7017 12.9547 30.948 13.119 30.1094 13.119C29.2707 13.119 28.5114 12.9547 27.8314 12.626C27.1627 12.2973 26.63 11.7987 26.2334 11.13C25.848 10.45 25.6554 9.617 25.6554 8.631V1.151H27.2024ZM43.4001 13L40.5781 8.155H38.7081V13H37.1611V1.151H40.9861C41.8814 1.151 42.6351 1.304 43.2471 1.61C43.8704 1.916 44.3351 2.32967 44.6411 2.851C44.9471 3.37233 45.1001 3.96733 45.1001 4.636C45.1001 5.452 44.8621 6.17167 44.3861 6.795C43.9214 7.41833 43.2187 7.832 42.2781 8.036L45.2531 13H43.4001ZM38.7081 6.914H40.9861C41.8247 6.914 42.4537 6.71 42.8731 6.302C43.2924 5.88267 43.5021 5.32733 43.5021 4.636C43.5021 3.93333 43.2924 3.38933 42.8731 3.004C42.4651 2.61867 41.8361 2.426 40.9861 2.426H38.7081V6.914ZM51.4581 7.067C51.4581 5.911 51.7187 4.874 52.2401 3.956C52.7614 3.02667 53.4697 2.30133 54.3651 1.78C55.2717 1.25867 56.2747 0.997999 57.3741 0.997999C58.6661 0.997999 59.7937 1.30967 60.7571 1.933C61.7204 2.55633 62.4231 3.44033 62.8651 4.585H61.0121C60.6834 3.871 60.2074 3.32133 59.5841 2.936C58.9721 2.55067 58.2354 2.358 57.3741 2.358C56.5467 2.358 55.8044 2.55067 55.1471 2.936C54.4897 3.32133 53.9741 3.871 53.6001 4.585C53.2261 5.28767 53.0391 6.115 53.0391 7.067C53.0391 8.00767 53.2261 8.835 53.6001 9.549C53.9741 10.2517 54.4897 10.7957 55.1471 11.181C55.8044 11.5663 56.5467 11.759 57.3741 11.759C58.2354 11.759 58.9721 11.572 59.5841 11.198C60.2074 10.8127 60.6834 10.263 61.0121 9.549H62.8651C62.4231 10.6823 61.7204 11.5607 60.7571 12.184C59.7937 12.796 58.6661 13.102 57.3741 13.102C56.2747 13.102 55.2717 12.847 54.3651 12.337C53.4697 11.8157 52.7614 11.096 52.2401 10.178C51.7187 9.26 51.4581 8.223 51.4581 7.067ZM70.5399 13.119C69.4406 13.119 68.4376 12.864 67.5309 12.354C66.6242 11.8327 65.9046 11.113 65.3719 10.195C64.8506 9.26567 64.5899 8.223 64.5899 7.067C64.5899 5.911 64.8506 4.874 65.3719 3.956C65.9046 3.02667 66.6242 2.307 67.5309 1.797C68.4376 1.27567 69.4406 1.015 70.5399 1.015C71.6506 1.015 72.6592 1.27567 73.5659 1.797C74.4726 2.307 75.1866 3.021 75.7079 3.939C76.2292 4.857 76.4899 5.89967 76.4899 7.067C76.4899 8.23433 76.2292 9.277 75.7079 10.195C75.1866 11.113 74.4726 11.8327 73.5659 12.354C72.6592 12.864 71.6506 13.119 70.5399 13.119ZM70.5399 11.776C71.3672 11.776 72.1096 11.5833 72.7669 11.198C73.4356 10.8127 73.9569 10.263 74.3309 9.549C74.7162 8.835 74.9089 8.00767 74.9089 7.067C74.9089 6.115 74.7162 5.28767 74.3309 4.585C73.9569 3.871 73.4412 3.32133 72.7839 2.936C72.1266 2.55067 71.3786 2.358 70.5399 2.358C69.7012 2.358 68.9532 2.55067 68.2959 2.936C67.6386 3.32133 67.1172 3.871 66.7319 4.585C66.3579 5.28767 66.1709 6.115 66.1709 7.067C66.1709 8.00767 66.3579 8.835 66.7319 9.549C67.1172 10.263 67.6386 10.8127 68.2959 11.198C68.9646 11.5833 69.7126 11.776 70.5399 11.776ZM90.5511 1.236V13H89.0041V4.228L85.0941 13H84.0061L80.0791 4.211V13H78.5321V1.236H80.1981L84.5501 10.96L88.9021 1.236H90.5511ZM101.097 4.619C101.097 5.605 100.757 6.42667 100.077 7.084C99.4081 7.73 98.3824 8.053 96.9997 8.053H94.7217V13H93.1747V1.151H96.9997C98.3371 1.151 99.3514 1.474 100.043 2.12C100.745 2.766 101.097 3.599 101.097 4.619ZM96.9997 6.778C97.8611 6.778 98.4957 6.591 98.9037 6.217C99.3117 5.843 99.5157 5.31033 99.5157 4.619C99.5157 3.157 98.6771 2.426 96.9997 2.426H94.7217V6.778H96.9997ZM108.391 13.119C107.292 13.119 106.289 12.864 105.382 12.354C104.476 11.8327 103.756 11.113 103.223 10.195C102.702 9.26567 102.441 8.223 102.441 7.067C102.441 5.911 102.702 4.874 103.223 3.956C103.756 3.02667 104.476 2.307 105.382 1.797C106.289 1.27567 107.292 1.015 108.391 1.015C109.502 1.015 110.511 1.27567 111.417 1.797C112.324 2.307 113.038 3.021 113.559 3.939C114.081 4.857 114.341 5.89967 114.341 7.067C114.341 8.23433 114.081 9.277 113.559 10.195C113.038 11.113 112.324 11.8327 111.417 12.354C110.511 12.864 109.502 13.119 108.391 13.119ZM108.391 11.776C109.219 11.776 109.961 11.5833 110.618 11.198C111.287 10.8127 111.808 10.263 112.182 9.549C112.568 8.835 112.76 8.00767 112.76 7.067C112.76 6.115 112.568 5.28767 112.182 4.585C111.808 3.871 111.293 3.32133 110.635 2.936C109.978 2.55067 109.23 2.358 108.391 2.358C107.553 2.358 106.805 2.55067 106.147 2.936C105.49 3.32133 104.969 3.871 104.583 4.585C104.209 5.28767 104.022 6.115 104.022 7.067C104.022 8.00767 104.209 8.835 104.583 9.549C104.969 10.263 105.49 10.8127 106.147 11.198C106.816 11.5833 107.564 11.776 108.391 11.776ZM120.141 13.119C119.359 13.119 118.656 12.983 118.033 12.711C117.421 12.4277 116.939 12.0423 116.588 11.555C116.236 11.0563 116.055 10.484 116.044 9.838H117.693C117.749 10.3933 117.976 10.8637 118.373 11.249C118.781 11.623 119.37 11.81 120.141 11.81C120.877 11.81 121.455 11.6287 121.875 11.266C122.305 10.892 122.521 10.416 122.521 9.838C122.521 9.38467 122.396 9.01633 122.147 8.733C121.897 8.44967 121.586 8.23433 121.212 8.087C120.838 7.93967 120.333 7.781 119.699 7.611C118.917 7.407 118.288 7.203 117.812 6.999C117.347 6.795 116.945 6.47767 116.605 6.047C116.276 5.605 116.112 5.01567 116.112 4.279C116.112 3.633 116.276 3.06067 116.605 2.562C116.933 2.06333 117.392 1.678 117.982 1.406C118.582 1.134 119.268 0.997999 120.039 0.997999C121.149 0.997999 122.056 1.27567 122.759 1.831C123.473 2.38633 123.875 3.123 123.966 4.041H122.266C122.209 3.58767 121.971 3.191 121.552 2.851C121.132 2.49967 120.577 2.324 119.886 2.324C119.24 2.324 118.713 2.494 118.305 2.834C117.897 3.16267 117.693 3.62733 117.693 4.228C117.693 4.65867 117.812 5.01 118.05 5.282C118.299 5.554 118.599 5.76367 118.951 5.911C119.313 6.047 119.818 6.20567 120.464 6.387C121.246 6.60233 121.875 6.81767 122.351 7.033C122.827 7.237 123.235 7.56 123.575 8.002C123.915 8.43267 124.085 9.022 124.085 9.77C124.085 10.348 123.932 10.892 123.626 11.402C123.32 11.912 122.866 12.3257 122.266 12.643C121.665 12.9603 120.957 13.119 120.141 13.119ZM127.908 1.151V13H126.361V1.151H127.908ZM137.838 1.151V2.409H134.608V13H133.061V2.409H129.814V1.151H137.838ZM141.289 1.151V13H139.742V1.151H141.289ZM149.298 13.119C148.198 13.119 147.195 12.864 146.289 12.354C145.382 11.8327 144.662 11.113 144.13 10.195C143.608 9.26567 143.348 8.223 143.348 7.067C143.348 5.911 143.608 4.874 144.13 3.956C144.662 3.02667 145.382 2.307 146.289 1.797C147.195 1.27567 148.198 1.015 149.298 1.015C150.408 1.015 151.417 1.27567 152.324 1.797C153.23 2.307 153.944 3.021 154.466 3.939C154.987 4.857 155.248 5.89967 155.248 7.067C155.248 8.23433 154.987 9.277 154.466 10.195C153.944 11.113 153.23 11.8327 152.324 12.354C151.417 12.864 150.408 13.119 149.298 13.119ZM149.298 11.776C150.125 11.776 150.867 11.5833 151.525 11.198C152.193 10.8127 152.715 10.263 153.089 9.549C153.474 8.835 153.667 8.00767 153.667 7.067C153.667 6.115 153.474 5.28767 153.089 4.585C152.715 3.871 152.199 3.32133 151.542 2.936C150.884 2.55067 150.136 2.358 149.298 2.358C148.459 2.358 147.711 2.55067 147.054 2.936C146.396 3.32133 145.875 3.871 145.49 4.585C145.116 5.28767 144.929 6.115 144.929 7.067C144.929 8.00767 145.116 8.835 145.49 9.549C145.875 10.263 146.396 10.8127 147.054 11.198C147.722 11.5833 148.47 11.776 149.298 11.776ZM166.606 13H165.059L158.837 3.565V13H157.29V1.134H158.837L165.059 10.552V1.134H166.606V13ZM173 13.119C172.218 13.119 171.515 12.983 170.892 12.711C170.28 12.4277 169.798 12.0423 169.447 11.555C169.096 11.0563 168.914 10.484 168.903 9.838H170.552C170.609 10.3933 170.835 10.8637 171.232 11.249C171.64 11.623 172.229 11.81 173 11.81C173.737 11.81 174.315 11.6287 174.734 11.266C175.165 10.892 175.38 10.416 175.38 9.838C175.38 9.38467 175.255 9.01633 175.006 8.733C174.757 8.44967 174.445 8.23433 174.071 8.087C173.697 7.93967 173.193 7.781 172.558 7.611C171.776 7.407 171.147 7.203 170.671 6.999C170.206 6.795 169.804 6.47767 169.464 6.047C169.135 5.605 168.971 5.01567 168.971 4.279C168.971 3.633 169.135 3.06067 169.464 2.562C169.793 2.06333 170.252 1.678 170.841 1.406C171.442 1.134 172.127 0.997999 172.898 0.997999C174.009 0.997999 174.915 1.27567 175.618 1.831C176.332 2.38633 176.734 3.123 176.825 4.041H175.125C175.068 3.58767 174.83 3.191 174.411 2.851C173.992 2.49967 173.436 2.324 172.745 2.324C172.099 2.324 171.572 2.494 171.164 2.834C170.756 3.16267 170.552 3.62733 170.552 4.228C170.552 4.65867 170.671 5.01 170.909 5.282C171.158 5.554 171.459 5.76367 171.81 5.911C172.173 6.047 172.677 6.20567 173.323 6.387C174.105 6.60233 174.734 6.81767 175.21 7.033C175.686 7.237 176.094 7.56 176.434 8.002C176.774 8.43267 176.944 9.022 176.944 9.77C176.944 10.348 176.791 10.892 176.485 11.402C176.179 11.912 175.726 12.3257 175.125 12.643C174.524 12.9603 173.816 13.119 173 13.119Z" fill="black"/>
<path d="M10.6934 1.151L11.1364 1.38274L11.5192 0.651H10.6934V1.151ZM6.83438 8.529L6.39132 8.29726L6.33438 8.40614V8.529H6.83438ZM6.83438 13V13.5H7.33438V13H6.83438ZM5.28738 13H4.78738V13.5H5.28738V13ZM5.28738 8.529H5.78738V8.40566L5.73001 8.29646L5.28738 8.529ZM1.41138 1.151V0.651H0.583908L0.968742 1.38354L1.41138 1.151ZM3.12838 1.151L3.57786 0.931988L3.44095 0.651H3.12838V1.151ZM6.05238 7.152L5.6029 7.37101L6.05238 8.29349L6.50186 7.37101L6.05238 7.152ZM8.97638 1.151V0.651H8.66381L8.5269 0.931988L8.97638 1.151ZM10.2503 0.919263L6.39132 8.29726L7.27744 8.76074L11.1364 1.38274L10.2503 0.919263ZM6.33438 8.529V13H7.33438V8.529H6.33438ZM6.83438 12.5H5.28738V13.5H6.83438V12.5ZM5.78738 13V8.529H4.78738V13H5.78738ZM5.73001 8.29646L1.85402 0.918463L0.968742 1.38354L4.84474 8.76154L5.73001 8.29646ZM1.41138 1.651H3.12838V0.651H1.41138V1.651ZM2.6789 1.37001L5.6029 7.37101L6.50186 6.93299L3.57786 0.931988L2.6789 1.37001ZM6.50186 7.37101L9.42586 1.37001L8.5269 0.931988L5.6029 6.93299L6.50186 7.37101ZM8.97638 1.651H10.6934V0.651H8.97638V1.651ZM14.6881 12.354L14.4389 12.7875L14.443 12.7898L14.6881 12.354ZM12.5291 10.195L12.093 10.4397L12.0966 10.4459L12.5291 10.195ZM12.5291 3.956L12.0953 3.70736L12.0943 3.70909L12.5291 3.956ZM14.6881 1.797L14.9333 2.23281L14.9373 2.23045L14.6881 1.797ZM20.7231 1.797L20.4739 2.23047L20.478 2.23279L20.7231 1.797ZM22.8651 3.939L23.2999 3.69209L22.8651 3.939ZM20.7231 12.354L20.9683 12.7898L20.9724 12.7875L20.7231 12.354ZM19.9241 11.198L19.6745 10.7648L19.6713 10.7667L19.9241 11.198ZM21.4881 9.549L21.0481 9.31152L21.0452 9.317L21.4881 9.549ZM21.4881 4.585L21.0451 4.81705L21.0497 4.82542L21.4881 4.585ZM19.9411 2.936L19.6883 3.36735L19.9411 2.936ZM15.4531 2.936L15.706 3.36735L15.4531 2.936ZM13.8891 4.585L13.4491 4.34753L13.4477 4.35007L13.8891 4.585ZM13.8891 9.549L13.4462 9.78102L13.4491 9.78647L13.8891 9.549ZM15.4531 11.198L15.2002 11.6294L15.2035 11.6312L15.4531 11.198ZM17.6971 12.619C16.6786 12.619 15.7608 12.3837 14.9332 11.9182L14.443 12.7898C15.4288 13.3443 16.517 13.619 17.6971 13.619V12.619ZM14.9373 11.9205C14.1079 11.4436 13.4509 10.7874 12.9616 9.94406L12.0966 10.4459C12.6726 11.4386 13.455 12.2217 14.4389 12.7875L14.9373 11.9205ZM12.9652 9.95037C12.4893 9.10202 12.2471 8.14481 12.2471 7.067H11.2471C11.2471 8.30119 11.5263 9.42931 12.093 10.4396L12.9652 9.95037ZM12.2471 7.067C12.2471 5.98912 12.4893 5.03862 12.9639 4.20291L12.0943 3.70909C11.5263 4.70938 11.2471 5.83288 11.2471 7.067H12.2471ZM12.9629 4.20464C13.4521 3.35113 14.1076 2.69721 14.9332 2.23279L14.443 1.36121C13.4553 1.91679 12.6714 2.70221 12.0953 3.70736L12.9629 4.20464ZM14.9373 2.23045C15.7643 1.75498 16.6806 1.515 17.6971 1.515V0.514999C16.515 0.514999 15.4253 0.796351 14.4389 1.36355L14.9373 2.23045ZM17.6971 1.515C18.7259 1.515 19.6478 1.75544 20.4739 2.23045L20.9724 1.36355C19.9851 0.795894 18.8896 0.514999 17.6971 0.514999V1.515ZM20.478 2.23279C21.3042 2.69754 21.9532 3.3457 22.4303 4.18591L23.2999 3.69209C22.7344 2.6963 21.9553 1.91646 20.9682 1.36121L20.478 2.23279ZM22.4303 4.18591C22.9045 5.02089 23.1471 5.97685 23.1471 7.067H24.1471C24.1471 5.82248 23.8684 4.69311 23.2999 3.69209L22.4303 4.18591ZM23.1471 7.067C23.1471 8.15715 22.9045 9.11311 22.4303 9.94809L23.2999 10.4419C23.8684 9.44089 24.1471 8.31152 24.1471 7.067H23.1471ZM22.4303 9.94809C21.9526 10.7892 21.3024 11.4442 20.4739 11.9205L20.9724 12.7875C21.9572 12.2212 22.7349 11.4368 23.2999 10.4419L22.4303 9.94809ZM20.478 11.9182C19.6512 12.3833 18.7279 12.619 17.6971 12.619V13.619C18.8876 13.619 19.9817 13.3447 20.9682 12.7898L20.478 11.9182ZM17.6971 12.276C18.6055 12.276 19.4364 12.0635 20.177 11.6293L19.6713 10.7667C19.0971 11.1032 18.4434 11.276 17.6971 11.276V12.276ZM20.1738 11.6312C20.9284 11.1963 21.5151 10.5751 21.931 9.781L21.0452 9.317C20.7132 9.95087 20.2572 10.429 19.6745 10.7648L20.1738 11.6312ZM21.9281 9.78647C22.3587 8.98864 22.5661 8.07728 22.5661 7.067H21.5661C21.5661 7.93806 21.3882 8.68136 21.0481 9.31153L21.9281 9.78647ZM22.5661 7.067C22.5661 6.04675 22.3592 5.13365 21.9265 4.34458L21.0497 4.82542C21.3877 5.44169 21.5661 6.18325 21.5661 7.067H22.5661ZM21.931 4.353C21.5162 3.56108 20.9368 2.94011 20.194 2.50465L19.6883 3.36735C20.2601 3.70255 20.712 4.18092 21.0452 4.817L21.931 4.353ZM20.194 2.50465C19.4524 2.06993 18.6155 1.858 17.6971 1.858V2.858C18.4561 2.858 19.1152 3.03141 19.6883 3.36735L20.194 2.50465ZM17.6971 1.858C16.7788 1.858 15.9418 2.06993 15.2003 2.50465L15.706 3.36735C16.2791 3.03141 16.9381 2.858 17.6971 2.858V1.858ZM15.2003 2.50465C14.4588 2.93929 13.875 3.55843 13.4491 4.34753L14.3291 4.82247C14.6739 4.18357 15.1328 3.70337 15.706 3.36735L15.2003 2.50465ZM13.4477 4.35007C13.0284 5.13797 12.8281 6.04905 12.8281 7.067H13.8281C13.8281 6.18095 14.0019 5.43737 14.3305 4.81992L13.4477 4.35007ZM12.8281 7.067C12.8281 8.07496 13.0289 8.98433 13.4462 9.781L14.332 9.317C14.0013 8.68567 13.8281 7.94038 13.8281 7.067H12.8281ZM13.4491 9.78647C13.875 10.5756 14.4588 11.1947 15.2003 11.6293L15.706 10.7667C15.1328 10.4306 14.6739 9.95043 14.3291 9.31153L13.4491 9.78647ZM15.2035 11.6312C15.9535 12.0634 16.7887 12.276 17.6971 12.276V11.276C16.9509 11.276 16.29 11.1032 15.7028 10.7648L15.2035 11.6312ZM27.2024 1.151H27.7024V0.651H27.2024V1.151ZM27.9674 10.994L27.6138 11.3476L27.6177 11.3514L27.9674 10.994ZM32.2514 10.994L31.9017 10.6366L31.8978 10.6404L32.2514 10.994ZM33.0334 1.151V0.651H32.5334V1.151H33.0334ZM34.5804 1.151H35.0804V0.651H34.5804V1.151ZM33.9854 11.13L34.4154 11.3851L34.4173 11.3819L33.9854 11.13ZM32.3704 12.626L32.1528 12.1758L32.1498 12.1773L32.3704 12.626ZM27.8314 12.626L27.6108 13.0747L27.6138 13.0762L27.8314 12.626ZM26.2334 11.13L25.7983 11.3766L25.8033 11.3851L26.2334 11.13ZM25.6554 1.151V0.651H25.1554V1.151H25.6554ZM26.7024 1.151V8.648H27.7024V1.151H26.7024ZM26.7024 8.648C26.7024 9.77353 26.9743 10.708 27.6138 11.3476L28.3209 10.6404C27.9405 10.26 27.7024 9.63048 27.7024 8.648H26.7024ZM27.6177 11.3514C28.2551 11.975 29.1132 12.259 30.1264 12.259V11.259C29.3036 11.259 28.7223 11.033 28.317 10.6366L27.6177 11.3514ZM30.1264 12.259C31.1297 12.259 31.9785 11.974 32.6049 11.3476L31.8978 10.6404C31.5043 11.034 30.9364 11.259 30.1264 11.259V12.259ZM32.601 11.3514C33.2544 10.7122 33.5334 9.77626 33.5334 8.648H32.5334C32.5334 9.62774 32.291 10.2558 31.9017 10.6366L32.601 11.3514ZM33.5334 8.648V1.151H32.5334V8.648H33.5334ZM33.0334 1.651H34.5804V0.651H33.0334V1.651ZM34.0804 1.151V8.631H35.0804V1.151H34.0804ZM34.0804 8.631C34.0804 9.55056 33.8956 10.2916 33.5535 10.8781L34.4173 11.3819C34.8685 10.6084 35.0804 9.68344 35.0804 8.631H34.0804ZM33.5553 10.8749C33.2072 11.4617 32.7416 11.8912 32.1528 12.1758L32.588 13.0762C33.3591 12.7034 33.9702 12.1356 34.4154 11.3851L33.5553 10.8749ZM32.1498 12.1773C31.558 12.4682 30.8812 12.619 30.1094 12.619V13.619C31.0148 13.619 31.8454 13.4412 32.5909 13.0747L32.1498 12.1773ZM30.1094 12.619C29.3377 12.619 28.6539 12.4682 28.049 12.1758L27.6138 13.0762C28.3688 13.4411 29.2038 13.619 30.1094 13.619V12.619ZM28.0519 12.1773C27.4743 11.8934 27.0128 11.4639 26.6634 10.8749L25.8033 11.3851C26.2473 12.1334 26.8511 12.7013 27.6108 13.0747L28.0519 12.1773ZM26.6684 10.8835C26.3354 10.2959 26.1554 9.55282 26.1554 8.631H25.1554C25.1554 9.68118 25.3607 10.6041 25.7984 11.3765L26.6684 10.8835ZM26.1554 8.631V1.151H25.1554V8.631H26.1554ZM25.6554 1.651H27.2024V0.651H25.6554V1.651ZM43.4001 13L42.968 13.2517L43.1126 13.5H43.4001V13ZM40.578 8.155L41.0101 7.90335L40.8655 7.655H40.578V8.155ZM38.708 8.155V7.655H38.208V8.155H38.708ZM38.708 13V13.5H39.208V13H38.708ZM37.1611 13H36.6611V13.5H37.1611V13ZM37.1611 1.151V0.651H36.6611V1.151H37.1611ZM43.2471 1.61L43.0234 2.05723L43.0267 2.05883L43.2471 1.61ZM44.3861 6.795L43.9886 6.49152L43.9852 6.49617L44.3861 6.795ZM42.2781 8.036L42.1721 7.54736L41.4908 7.6951L41.8492 8.29303L42.2781 8.036ZM45.2531 13V13.5H46.1356L45.6819 12.743L45.2531 13ZM38.708 6.914H38.208V7.414H38.708V6.914ZM42.8731 6.302L43.2218 6.6604L43.2266 6.65555L42.8731 6.302ZM42.8731 3.004L42.5297 3.36754L42.5347 3.37216L42.8731 3.004ZM38.708 2.426V1.926H38.208V2.426H38.708ZM43.8321 12.7483L41.0101 7.90335L40.146 8.40665L42.968 13.2517L43.8321 12.7483ZM40.578 7.655H38.708V8.655H40.578V7.655ZM38.208 8.155V13H39.208V8.155H38.208ZM38.708 12.5H37.1611V13.5H38.708V12.5ZM37.6611 13V1.151H36.6611V13H37.6611ZM37.1611 1.651H40.9861V0.651H37.1611V1.651ZM40.9861 1.651C41.8268 1.651 42.4989 1.79494 43.0234 2.05721L43.4707 1.16279C42.7712 0.813058 41.936 0.651 40.9861 0.651V1.651ZM43.0267 2.05883C43.5755 2.32825 43.9605 2.67931 44.2098 3.1041L45.0723 2.5979C44.7096 1.98002 44.1652 1.50374 43.4674 1.16117L43.0267 2.05883ZM44.2098 3.1041C44.4661 3.54074 44.6001 4.04662 44.6001 4.636H45.6001C45.6001 3.88805 45.428 3.20393 45.0723 2.5979L44.2098 3.1041ZM44.6001 4.636C44.6001 5.34709 44.3953 5.95908 43.9887 6.49154L44.7834 7.09846C45.3288 6.38425 45.6001 5.55691 45.6001 4.636H44.6001ZM43.9852 6.49617C43.6087 7.00119 43.0239 7.36262 42.1721 7.54736L42.384 8.52464C43.4135 8.30138 44.2341 7.83547 44.7869 7.09383L43.9852 6.49617ZM41.8492 8.29303L44.8242 13.257L45.6819 12.743L42.7069 7.77897L41.8492 8.29303ZM45.2531 12.5H43.4001V13.5H45.2531V12.5ZM38.708 7.414H40.9861V6.414H38.708V7.414ZM40.9861 7.414C41.8984 7.414 42.6751 7.19218 43.2217 6.66036L42.5244 5.94364C42.2323 6.22782 41.751 6.414 40.9861 6.414V7.414ZM43.2266 6.65555C43.7553 6.1269 44.0021 5.4362 44.0021 4.636H43.0021C43.0021 5.21847 42.8295 5.63843 42.5195 5.94845L43.2266 6.65555ZM44.0021 4.636C44.0021 3.82858 43.7571 3.1373 43.2114 2.63584L42.5347 3.37216C42.8277 3.64137 43.0021 4.03808 43.0021 4.636H44.0021ZM43.2164 2.64049C42.6776 2.13163 41.8996 1.926 40.9861 1.926V2.926C41.7725 2.926 42.2525 3.1057 42.5297 3.36751L43.2164 2.64049ZM40.9861 1.926H38.708V2.926H40.9861V1.926ZM38.208 2.426V6.914H39.208V2.426H38.208ZM52.2401 3.956L52.6748 4.20292L52.6761 4.20063L52.2401 3.956ZM54.3651 1.78L54.1158 1.34654L54.1135 1.34791L54.3651 1.78ZM60.757 1.933L61.0287 1.51321L60.757 1.933ZM62.8651 4.585V5.085H63.5941L63.3315 4.40489L62.8651 4.585ZM61.0121 4.585L60.5579 4.79407L60.6918 5.085H61.0121V4.585ZM59.5841 2.936L59.3176 3.35913L59.3211 3.3613L59.5841 2.936ZM55.147 2.936L55.3999 3.36735L55.147 2.936ZM53.6001 4.585L54.0414 4.81993L54.043 4.817L53.6001 4.585ZM53.6001 9.549L53.1571 9.78101L53.1587 9.78392L53.6001 9.549ZM55.147 11.181L55.3999 10.7497L55.147 11.181ZM59.5841 11.198L59.8448 11.6246L59.847 11.6233L59.5841 11.198ZM61.0121 9.549V9.049H60.6918L60.5579 9.33993L61.0121 9.549ZM62.8651 9.549L63.3309 9.73067L63.5967 9.049H62.8651V9.549ZM60.757 12.184L61.0252 12.6061L61.0287 12.6038L60.757 12.184ZM54.3651 12.337L54.1134 12.7691L54.1199 12.7728L54.3651 12.337ZM52.2401 10.178L52.6748 9.93109L52.2401 10.178ZM51.9581 7.067C51.9581 5.98912 52.2002 5.03862 52.6748 4.20291L51.8053 3.70909C51.2372 4.70938 50.9581 5.83288 50.9581 7.067H51.9581ZM52.6761 4.20063C53.1551 3.3468 53.8007 2.68719 54.6166 2.21209L54.1135 1.34791C53.1387 1.91547 52.3677 2.70653 51.804 3.71137L52.6761 4.20063ZM54.6143 2.21345C55.4412 1.73798 56.3575 1.498 57.3741 1.498V0.498C56.1919 0.498 55.1022 0.779352 54.1158 1.34655L54.6143 2.21345ZM57.3741 1.498C58.5822 1.498 59.6129 1.78822 60.4854 2.35279L61.0287 1.51321C59.9745 0.831109 58.7499 0.498 57.3741 0.498V1.498ZM60.4854 2.35279C61.3539 2.91471 61.9918 3.71165 62.3986 4.76511L63.3315 4.40489C62.8543 3.16901 62.0869 2.19796 61.0287 1.51321L60.4854 2.35279ZM62.8651 4.085H61.0121V5.085H62.8651V4.085ZM61.4662 4.37593C61.0996 3.57941 60.5601 2.95153 59.847 2.5107L59.3211 3.3613C59.8547 3.69113 60.2672 4.16259 60.5579 4.79407L61.4662 4.37593ZM59.8505 2.51288C59.1446 2.06843 58.3114 1.858 57.3741 1.858V2.858C58.1593 2.858 58.7995 3.03291 59.3176 3.35912L59.8505 2.51288ZM57.3741 1.858C56.4657 1.858 55.6347 2.07054 54.8942 2.50465L55.3999 3.36735C55.974 3.03079 56.6277 2.858 57.3741 2.858V1.858ZM54.8942 2.50465C54.1513 2.94011 53.5719 3.56108 53.1571 4.353L54.043 4.817C54.3762 4.18092 54.8281 3.70255 55.3999 3.36735L54.8942 2.50465ZM53.1587 4.35007C52.7393 5.13797 52.539 6.04905 52.539 7.067H53.539C53.539 6.18095 53.7128 5.43737 54.0414 4.81992L53.1587 4.35007ZM52.539 7.067C52.539 8.07496 52.7398 8.98433 53.1571 9.781L54.043 9.317C53.7123 8.68567 53.539 7.94038 53.539 7.067H52.539ZM53.1587 9.78392C53.5741 10.5644 54.1534 11.1781 54.8942 11.6123L55.3999 10.7497C54.826 10.4132 54.374 9.93891 54.0414 9.31408L53.1587 9.78392ZM54.8942 11.6123C55.6347 12.0465 56.4657 12.259 57.3741 12.259V11.259C56.6277 11.259 55.974 11.0862 55.3999 10.7497L54.8942 11.6123ZM57.3741 12.259C58.3088 12.259 59.1398 12.0555 59.8448 11.6246L59.3233 10.7714C58.8043 11.0885 58.162 11.259 57.3741 11.259V12.259ZM59.847 11.6233C60.5601 11.1825 61.0996 10.5546 61.4662 9.75807L60.5579 9.33993C60.2672 9.97141 59.8547 10.4429 59.3211 10.7727L59.847 11.6233ZM61.0121 10.049H62.8651V9.049H61.0121V10.049ZM62.3992 9.36733C61.9929 10.4091 61.3552 11.2014 60.4854 11.7642L61.0287 12.6038C62.0856 11.9199 62.8532 10.9555 63.3309 9.73067L62.3992 9.36733ZM60.4889 11.762C59.616 12.3165 58.584 12.602 57.3741 12.602V13.602C58.7481 13.602 59.9715 13.2755 61.0252 12.606L60.4889 11.762ZM57.3741 12.602C56.3555 12.602 55.4377 12.3667 54.6102 11.9012L54.1199 12.7728C55.1057 13.3273 56.1939 13.602 57.3741 13.602V12.602ZM54.6166 11.9049C53.7992 11.4289 53.1534 10.7738 52.6748 9.93109L51.8053 10.4249C52.3694 11.4182 53.1403 12.2024 54.1135 12.7691L54.6166 11.9049ZM52.6748 9.93109C52.2002 9.09538 51.9581 8.14488 51.9581 7.067H50.9581C50.9581 8.30112 51.2372 9.42462 51.8053 10.4249L52.6748 9.93109ZM67.5309 12.354L67.2816 12.7875L67.2858 12.7898L67.5309 12.354ZM65.3719 10.195L64.9358 10.4397L64.9394 10.4459L65.3719 10.195ZM65.3719 3.956L64.9381 3.70736L64.9371 3.70909L65.3719 3.956ZM67.5309 1.797L67.776 2.23281L67.7801 2.23045L67.5309 1.797ZM73.5659 1.797L73.3166 2.23047L73.3208 2.23279L73.5659 1.797ZM75.7079 3.939L76.1427 3.69209L75.7079 3.939ZM73.5659 12.354L73.811 12.7898L73.8151 12.7875L73.5659 12.354ZM72.7669 11.198L72.5172 10.7648L72.514 10.7667L72.7669 11.198ZM74.3309 9.549L73.8908 9.31152L73.888 9.317L74.3309 9.549ZM74.3309 4.585L73.8879 4.81705L73.8925 4.82542L74.3309 4.585ZM72.7839 2.936L72.531 3.36735L72.7839 2.936ZM68.2959 2.936L68.5487 3.36735L68.2959 2.936ZM66.7319 4.585L66.2919 4.34753L66.2905 4.35007L66.7319 4.585ZM66.7319 9.549L66.2889 9.78102L66.2919 9.78647L66.7319 9.549ZM68.2959 11.198L68.043 11.6294L68.0462 11.6312L68.2959 11.198ZM70.5399 12.619C69.5214 12.619 68.6036 12.3837 67.776 11.9182L67.2858 12.7898C68.2715 13.3443 69.3597 13.619 70.5399 13.619V12.619ZM67.7801 11.9205C66.9507 11.4436 66.2937 10.7874 65.8044 9.94406L64.9394 10.4459C65.5154 11.4386 66.2978 12.2217 67.2817 12.7875L67.7801 11.9205ZM65.808 9.95037C65.3321 9.10202 65.0899 8.14481 65.0899 7.067H64.0899C64.0899 8.30119 64.3691 9.42931 64.9358 10.4396L65.808 9.95037ZM65.0899 7.067C65.0899 5.98912 65.3321 5.03862 65.8067 4.20291L64.9371 3.70909C64.369 4.70938 64.0899 5.83288 64.0899 7.067H65.0899ZM65.8057 4.20464C66.2949 3.35113 66.9504 2.69721 67.776 2.23279L67.2858 1.36121C66.2981 1.91679 65.5142 2.70221 64.9381 3.70736L65.8057 4.20464ZM67.7801 2.23045C68.607 1.75498 69.5234 1.515 70.5399 1.515V0.514999C69.3577 0.514999 68.2681 0.796351 67.2817 1.36355L67.7801 2.23045ZM70.5399 1.515C71.5687 1.515 72.4905 1.75544 73.3167 2.23045L73.8151 1.36355C72.8279 0.795894 71.7324 0.514999 70.5399 0.514999V1.515ZM73.3208 2.23279C74.147 2.69754 74.796 3.3457 75.2731 4.18591L76.1427 3.69209C75.5772 2.6963 74.7981 1.91646 73.811 1.36121L73.3208 2.23279ZM75.2731 4.18591C75.7473 5.02089 75.9899 5.97685 75.9899 7.067H76.9899C76.9899 5.82248 76.7112 4.69311 76.1427 3.69209L75.2731 4.18591ZM75.9899 7.067C75.9899 8.15715 75.7473 9.11311 75.2731 9.94809L76.1427 10.4419C76.7112 9.44089 76.9899 8.31152 76.9899 7.067H75.9899ZM75.2731 9.94809C74.7954 10.7892 74.1452 11.4442 73.3167 11.9205L73.8151 12.7875C74.7999 12.2212 75.5777 11.4368 76.1427 10.4419L75.2731 9.94809ZM73.3208 11.9182C72.494 12.3833 71.5707 12.619 70.5399 12.619V13.619C71.7304 13.619 72.8244 13.3447 73.811 12.7898L73.3208 11.9182ZM70.5399 12.276C71.4482 12.276 72.2792 12.0635 73.0197 11.6293L72.514 10.7667C71.9399 11.1032 71.2862 11.276 70.5399 11.276V12.276ZM73.0165 11.6312C73.7712 11.1963 74.3578 10.5751 74.7738 9.781L73.888 9.317C73.5559 9.95087 73.0999 10.429 72.5172 10.7648L73.0165 11.6312ZM74.7709 9.78647C75.2015 8.98864 75.4089 8.07728 75.4089 7.067H74.4089C74.4089 7.93806 74.231 8.68136 73.8909 9.31153L74.7709 9.78647ZM75.4089 7.067C75.4089 6.04675 75.202 5.13365 74.7693 4.34458L73.8925 4.82542C74.2304 5.44169 74.4089 6.18325 74.4089 7.067H75.4089ZM74.7738 4.353C74.359 3.56108 73.7796 2.94011 73.0368 2.50465L72.531 3.36735C73.1028 3.70255 73.5548 4.18092 73.888 4.817L74.7738 4.353ZM73.0368 2.50465C72.2952 2.06993 71.4582 1.858 70.5399 1.858V2.858C71.2989 2.858 71.9579 3.03141 72.531 3.36735L73.0368 2.50465ZM70.5399 1.858C69.6215 1.858 68.7846 2.06993 68.043 2.50465L68.5487 3.36735C69.1218 3.03141 69.7809 2.858 70.5399 2.858V1.858ZM68.043 2.50465C67.3016 2.93929 66.7177 3.55843 66.2919 4.34753L67.1719 4.82247C67.5167 4.18357 67.9755 3.70337 68.5487 3.36735L68.043 2.50465ZM66.2905 4.35007C65.8712 5.13797 65.6709 6.04905 65.6709 7.067H66.6709C66.6709 6.18095 66.8446 5.43737 67.1733 4.81992L66.2905 4.35007ZM65.6709 7.067C65.6709 8.07496 65.8717 8.98433 66.289 9.781L67.1748 9.317C66.8441 8.68567 66.6709 7.94038 66.6709 7.067H65.6709ZM66.2919 9.78647C66.7177 10.5756 67.3016 11.1947 68.043 11.6293L68.5487 10.7667C67.9755 10.4306 67.5167 9.95043 67.1719 9.31153L66.2919 9.78647ZM68.0462 11.6312C68.7963 12.0634 69.6315 12.276 70.5399 12.276V11.276C69.7937 11.276 69.1328 11.1032 68.5455 10.7648L68.0462 11.6312ZM90.5511 1.236H91.0511V0.736H90.5511V1.236ZM90.5511 13V13.5H91.0511V13H90.5511ZM89.0041 13H88.5041V13.5H89.0041V13ZM89.0041 4.228H89.5041L88.5475 4.02444L89.0041 4.228ZM85.0941 13V13.5H85.4187L85.5508 13.2036L85.0941 13ZM84.0061 13L83.5496 13.204L83.6819 13.5H84.0061V13ZM80.0791 4.211L80.5357 4.00703L79.5791 4.211H80.0791ZM80.0791 13V13.5H80.5791V13H80.0791ZM78.5321 13H78.0321V13.5H78.5321V13ZM78.5321 1.236V0.736H78.0321V1.236H78.5321ZM80.1981 1.236L80.6545 1.03175L80.5222 0.736H80.1981V1.236ZM84.5501 10.96L84.0938 11.1643L84.5501 12.184L85.0065 11.1643L84.5501 10.96ZM88.9021 1.236V0.736H88.5781L88.4458 1.03175L88.9021 1.236ZM90.0511 1.236V13H91.0511V1.236H90.0511ZM90.5511 12.5H89.0041V13.5H90.5511V12.5ZM89.5041 13V4.228H88.5041V13H89.5041ZM88.5475 4.02444L84.6375 12.7964L85.5508 13.2036L89.4608 4.43156L88.5475 4.02444ZM85.0941 12.5H84.0061V13.5H85.0941V12.5ZM84.4626 12.796L80.5357 4.00703L79.6226 4.41497L83.5496 13.204L84.4626 12.796ZM79.5791 4.211V13H80.5791V4.211H79.5791ZM80.0791 12.5H78.5321V13.5H80.0791V12.5ZM79.0321 13V1.236H78.0321V13H79.0321ZM78.5321 1.736H80.1981V0.736H78.5321V1.736ZM79.7418 1.44025L84.0938 11.1643L85.0065 10.7557L80.6545 1.03175L79.7418 1.44025ZM85.0065 11.1643L89.3585 1.44025L88.4458 1.03175L84.0938 10.7557L85.0065 11.1643ZM88.9021 1.736H90.5511V0.736H88.9021V1.736ZM100.077 7.084L100.424 7.44359L100.424 7.44349L100.077 7.084ZM94.7217 8.053V7.553H94.2217V8.053H94.7217ZM94.7217 13V13.5H95.2217V13H94.7217ZM93.1747 13H92.6747V13.5H93.1747V13ZM93.1747 1.151V0.651H92.6747V1.151H93.1747ZM100.043 2.12L99.7013 2.48534L99.7043 2.48808L100.043 2.12ZM98.9037 6.217L99.2416 6.58558L98.9037 6.217ZM94.7217 2.426V1.926H94.2217V2.426H94.7217ZM94.7217 6.778H94.2217V7.278H94.7217V6.778ZM100.597 4.619C100.597 5.47591 100.307 6.16578 99.7292 6.72451L100.424 7.44349C101.206 6.68755 101.597 5.73408 101.597 4.619H100.597ZM99.7293 6.7244C99.1907 7.24477 98.3151 7.553 96.9997 7.553V8.553C98.4497 8.553 99.6254 8.21523 100.424 7.44359L99.7293 6.7244ZM96.9997 7.553H94.7217V8.553H96.9997V7.553ZM94.2217 8.053V13H95.2217V8.053H94.2217ZM94.7217 12.5H93.1747V13.5H94.7217V12.5ZM93.6747 13V1.151H92.6747V13H93.6747ZM93.1747 1.651H96.9997V0.651H93.1747V1.651ZM96.9997 1.651C98.2628 1.651 99.1349 1.95603 99.7013 2.48533L100.384 1.75467C99.5679 0.991968 98.4114 0.651 96.9997 0.651V1.651ZM99.7043 2.48808C100.296 3.03234 100.597 3.72812 100.597 4.619H101.597C101.597 3.46988 101.194 2.49966 100.381 1.75192L99.7043 2.48808ZM96.9997 7.278C97.9193 7.278 98.7017 7.08045 99.2416 6.58558L98.5659 5.84842C98.2897 6.10155 97.8028 6.278 96.9997 6.278V7.278ZM99.2416 6.58558C99.7776 6.09425 100.016 5.41309 100.016 4.619H99.0157C99.0157 5.20758 98.8459 5.59175 98.5659 5.84842L99.2416 6.58558ZM100.016 4.619C100.016 3.79169 99.7753 3.08544 99.2153 2.59733C98.6684 2.12067 97.8999 1.926 96.9997 1.926V2.926C97.7769 2.926 98.2664 3.09683 98.5582 3.35117C98.8369 3.59406 99.0157 3.98431 99.0157 4.619H100.016ZM96.9997 1.926H94.7217V2.926H96.9997V1.926ZM94.2217 2.426V6.778H95.2217V2.426H94.2217ZM94.7217 7.278H96.9997V6.278H94.7217V7.278ZM105.382 12.354L105.133 12.7875L105.137 12.7898L105.382 12.354ZM103.223 10.195L102.787 10.4397L102.791 10.4459L103.223 10.195ZM103.223 3.956L102.79 3.70736L102.789 3.70909L103.223 3.956ZM105.382 1.797L105.628 2.23281L105.632 2.23045L105.382 1.797ZM111.417 1.797L111.168 2.23047L111.172 2.23279L111.417 1.797ZM113.559 3.939L113.994 3.69209L113.559 3.939ZM111.417 12.354L111.663 12.7898L111.667 12.7875L111.417 12.354ZM110.618 11.198L110.369 10.7648L110.366 10.7667L110.618 11.198ZM112.182 9.549L111.742 9.31152L111.74 9.317L112.182 9.549ZM112.182 4.585L111.739 4.81705L111.744 4.82542L112.182 4.585ZM110.635 2.936L110.383 3.36735L110.635 2.936ZM106.147 2.936L106.4 3.36735L106.147 2.936ZM104.583 4.585L104.143 4.34753L104.142 4.35007L104.583 4.585ZM104.583 9.549L104.141 9.78102L104.143 9.78647L104.583 9.549ZM106.147 11.198L105.895 11.6294L105.898 11.6312L106.147 11.198ZM108.391 12.619C107.373 12.619 106.455 12.3837 105.628 11.9182L105.137 12.7898C106.123 13.3443 107.211 13.619 108.391 13.619V12.619ZM105.632 11.9205C104.802 11.4436 104.145 10.7874 103.656 9.94406L102.791 10.4459C103.367 11.4386 104.149 12.2217 105.133 12.7875L105.632 11.9205ZM103.66 9.95037C103.184 9.10202 102.941 8.14481 102.941 7.067H101.941C101.941 8.30119 102.221 9.42931 102.787 10.4396L103.66 9.95037ZM102.941 7.067C102.941 5.98912 103.184 5.03862 103.658 4.20291L102.789 3.70909C102.221 4.70938 101.941 5.83288 101.941 7.067H102.941ZM103.657 4.20464C104.146 3.35113 104.802 2.69721 105.628 2.23279L105.137 1.36121C104.15 1.91679 103.366 2.70221 102.79 3.70736L103.657 4.20464ZM105.632 2.23045C106.459 1.75498 107.375 1.515 108.391 1.515V0.514999C107.209 0.514999 106.12 0.796351 105.133 1.36355L105.632 2.23045ZM108.391 1.515C109.42 1.515 110.342 1.75544 111.168 2.23045L111.667 1.36355C110.679 0.795894 109.584 0.514999 108.391 0.514999V1.515ZM111.172 2.23279C111.999 2.69754 112.648 3.3457 113.125 4.18591L113.994 3.69209C113.429 2.6963 112.65 1.91646 111.663 1.36121L111.172 2.23279ZM113.125 4.18591C113.599 5.02089 113.841 5.97685 113.841 7.067H114.841C114.841 5.82248 114.563 4.69311 113.994 3.69209L113.125 4.18591ZM113.841 7.067C113.841 8.15715 113.599 9.11311 113.125 9.94809L113.994 10.4419C114.563 9.44089 114.841 8.31152 114.841 7.067H113.841ZM113.125 9.94809C112.647 10.7892 111.997 11.4442 111.168 11.9205L111.667 12.7875C112.652 12.2212 113.429 11.4368 113.994 10.4419L113.125 9.94809ZM111.172 11.9182C110.346 12.3833 109.422 12.619 108.391 12.619V13.619C109.582 13.619 110.676 13.3447 111.663 12.7898L111.172 11.9182ZM108.391 12.276C109.3 12.276 110.131 12.0635 110.871 11.6293L110.366 10.7667C109.791 11.1032 109.138 11.276 108.391 11.276V12.276ZM110.868 11.6312C111.623 11.1963 112.209 10.5751 112.625 9.781L111.74 9.317C111.408 9.95087 110.952 10.429 110.369 10.7648L110.868 11.6312ZM112.622 9.78647C113.053 8.98864 113.26 8.07728 113.26 7.067H112.26C112.26 7.93806 112.083 8.68136 111.742 9.31153L112.622 9.78647ZM113.26 7.067C113.26 6.04675 113.054 5.13365 112.621 4.34458L111.744 4.82542C112.082 5.44169 112.26 6.18325 112.26 7.067H113.26ZM112.625 4.353C112.211 3.56108 111.631 2.94011 110.888 2.50465L110.383 3.36735C110.954 3.70255 111.406 4.18092 111.74 4.817L112.625 4.353ZM110.888 2.50465C110.147 2.06993 109.31 1.858 108.391 1.858V2.858C109.15 2.858 109.81 3.03141 110.383 3.36735L110.888 2.50465ZM108.391 1.858C107.473 1.858 106.636 2.06993 105.895 2.50465L106.4 3.36735C106.973 3.03141 107.632 2.858 108.391 2.858V1.858ZM105.895 2.50465C105.153 2.93929 104.569 3.55843 104.143 4.34753L105.023 4.82247C105.368 4.18357 105.827 3.70337 106.4 3.36735L105.895 2.50465ZM104.142 4.35007C103.723 5.13797 103.522 6.04905 103.522 7.067H104.522C104.522 6.18095 104.696 5.43737 105.025 4.81992L104.142 4.35007ZM103.522 7.067C103.522 8.07496 103.723 8.98433 104.141 9.781L105.026 9.317C104.696 8.68567 104.522 7.94038 104.522 7.067H103.522ZM104.143 9.78647C104.569 10.5756 105.153 11.1947 105.895 11.6293L106.4 10.7667C105.827 10.4306 105.368 9.95043 105.023 9.31153L104.143 9.78647ZM105.898 11.6312C106.648 12.0634 107.483 12.276 108.391 12.276V11.276C107.645 11.276 106.984 11.1032 106.397 10.7648L105.898 11.6312ZM118.033 12.711L117.823 13.1648L117.833 13.1693L118.033 12.711ZM116.588 11.555L116.179 11.843L116.182 11.8474L116.588 11.555ZM116.044 9.838V9.338H115.535L115.544 9.84677L116.044 9.838ZM117.693 9.838L118.19 9.78724L118.144 9.338H117.693V9.838ZM118.373 11.249L118.024 11.6076L118.03 11.6127L118.035 11.6176L118.373 11.249ZM121.875 11.266L122.202 11.6442L122.203 11.6435L121.875 11.266ZM122.147 8.733L121.771 9.06331L122.147 8.733ZM121.212 8.087L121.028 8.5522L121.212 8.087ZM119.699 7.611L119.828 7.12802L119.825 7.12719L119.699 7.611ZM117.812 6.999L117.611 7.45684L117.615 7.45857L117.812 6.999ZM116.605 6.047L116.203 6.34535L116.208 6.35115L116.212 6.35682L116.605 6.047ZM116.605 2.562L117.022 2.83716L116.605 2.562ZM117.982 1.406L117.775 0.950511L117.772 0.95202L117.982 1.406ZM122.759 1.831L122.449 2.22329L122.452 2.22568L122.759 1.831ZM123.966 4.041V4.541H124.518L124.463 3.99186L123.966 4.041ZM122.266 4.041L121.77 4.10302L121.824 4.541H122.266V4.041ZM121.552 2.851L121.231 3.23431L121.237 3.23938L121.552 2.851ZM118.305 2.834L118.618 3.22343L118.625 3.21811L118.305 2.834ZM118.05 5.282L117.673 5.61134L117.681 5.61986L118.05 5.282ZM118.951 5.911L118.757 6.3721L118.766 6.3758L118.775 6.37916L118.951 5.911ZM120.464 6.387L120.329 6.8684L120.331 6.86906L120.464 6.387ZM122.351 7.033L122.145 7.48864L122.154 7.49257L122.351 7.033ZM123.575 8.002L123.178 8.30688L123.182 8.31182L123.575 8.002ZM123.626 11.402L124.054 11.6592L123.626 11.402ZM122.266 12.643L122.032 12.2009L122.266 12.643ZM120.141 12.619C119.417 12.619 118.784 12.4934 118.233 12.2527L117.833 13.1693C118.528 13.4726 119.3 13.619 120.141 13.619V12.619ZM118.243 12.2573C117.699 12.0055 117.288 11.672 116.993 11.2626L116.182 11.8474C116.59 12.4126 117.142 12.8498 117.823 13.1647L118.243 12.2573ZM116.996 11.267C116.706 10.8552 116.553 10.3814 116.544 9.82923L115.544 9.84677C115.557 10.5866 115.766 11.2575 116.179 11.843L116.996 11.267ZM116.044 10.338H117.693V9.338H116.044V10.338ZM117.195 9.88876C117.264 10.5598 117.542 11.1395 118.024 11.6076L118.721 10.8904C118.41 10.5878 118.235 10.2268 118.19 9.78724L117.195 9.88876ZM118.035 11.6176C118.566 12.1044 119.294 12.31 120.141 12.31V11.31C119.446 11.31 118.996 11.1416 118.711 10.8804L118.035 11.6176ZM120.141 12.31C120.958 12.31 121.665 12.1081 122.202 11.6442L121.548 10.8878C121.245 11.1492 120.797 11.31 120.141 11.31V12.31ZM122.203 11.6435C122.744 11.1731 123.021 10.5586 123.021 9.838H122.021C122.021 10.2734 121.867 10.6109 121.547 10.8885L122.203 11.6435ZM123.021 9.838C123.021 9.28875 122.867 8.7949 122.522 8.40269L121.771 9.06331C121.925 9.23777 122.021 9.48059 122.021 9.838H123.021ZM122.522 8.40269C122.217 8.05593 121.838 7.79627 121.395 7.6218L121.028 8.5522C121.334 8.6724 121.578 8.8434 121.771 9.06331L122.522 8.40269ZM121.395 7.6218C120.996 7.46458 120.471 7.30027 119.828 7.12803L119.569 8.09397C120.196 8.26173 120.68 8.41476 121.028 8.5522L121.395 7.6218ZM119.825 7.12719C119.055 6.92642 118.453 6.72974 118.009 6.53943L117.615 7.45857C118.123 7.67626 118.778 7.88758 119.572 8.09481L119.825 7.12719ZM118.013 6.54118C117.629 6.37273 117.291 6.10893 116.997 5.73718L116.212 6.35682C116.599 6.8464 117.065 7.21727 117.611 7.45682L118.013 6.54118ZM117.006 5.74865C116.76 5.41786 116.612 4.94413 116.612 4.279H115.612C115.612 5.08721 115.792 5.79214 116.203 6.34535L117.006 5.74865ZM116.612 4.279C116.612 3.72247 116.752 3.24745 117.022 2.83716L116.187 2.28684C115.8 2.87388 115.612 3.54353 115.612 4.279H116.612ZM117.022 2.83716C117.295 2.42304 117.679 2.09644 118.191 1.85998L117.772 0.95202C117.106 1.25956 116.572 1.70363 116.187 2.28684L117.022 2.83716ZM118.188 1.86148C118.714 1.62336 119.327 1.498 120.039 1.498V0.498C119.209 0.498 118.451 0.644637 117.775 0.950522L118.188 1.86148ZM120.039 1.498C121.065 1.498 121.854 1.75313 122.449 2.22328L123.069 1.43872C122.258 0.798205 121.234 0.498 120.039 0.498V1.498ZM122.452 2.22568C123.055 2.69497 123.391 3.30552 123.468 4.09014L124.463 3.99186C124.359 2.94047 123.89 2.0777 123.066 1.43632L122.452 2.22568ZM123.966 3.541H122.266V4.541H123.966V3.541ZM122.762 3.97898C122.686 3.37466 122.367 2.86814 121.867 2.46262L121.237 3.23938C121.575 3.51385 121.732 3.80067 121.77 4.10302L122.762 3.97898ZM121.873 2.46774C121.342 2.02284 120.663 1.824 119.886 1.824V2.824C120.491 2.824 120.923 2.97649 121.231 3.23426L121.873 2.46774ZM119.886 1.824C119.149 1.824 118.501 2.01976 117.985 2.44989L118.625 3.21811C118.925 2.96824 119.33 2.824 119.886 2.824V1.824ZM117.991 2.44462C117.447 2.88282 117.193 3.50098 117.193 4.228H118.193C118.193 3.75368 118.346 3.44251 118.618 3.22338L117.991 2.44462ZM117.193 4.228C117.193 4.75538 117.341 5.23128 117.673 5.61125L118.426 4.95275C118.282 4.78872 118.193 4.56196 118.193 4.228H117.193ZM117.681 5.61986C117.981 5.94687 118.342 6.19776 118.757 6.3721L119.144 5.4499C118.857 5.32957 118.617 5.16113 118.418 4.94414L117.681 5.61986ZM118.775 6.37916C119.157 6.52246 119.677 6.68556 120.329 6.86839L120.599 5.90561C119.958 5.72577 119.469 5.57154 119.126 5.44283L118.775 6.37916ZM120.331 6.86906C121.1 7.08081 121.702 7.28811 122.145 7.48855L122.557 6.57745C122.048 6.34722 121.391 6.12386 120.596 5.90494L120.331 6.86906ZM122.154 7.49257C122.545 7.66032 122.886 7.92726 123.178 8.30686L123.971 7.69714C123.583 7.19274 123.108 6.81368 122.548 6.57343L122.154 7.49257ZM123.182 8.31182C123.431 8.627 123.585 9.09394 123.585 9.77H124.585C124.585 8.95006 124.398 8.23833 123.967 7.69218L123.182 8.31182ZM123.585 9.77C123.585 10.2547 123.458 10.7101 123.197 11.1448L124.054 11.6592C124.406 11.0739 124.585 10.4413 124.585 9.77H123.585ZM123.197 11.1448C122.944 11.5658 122.564 11.92 122.032 12.2009L122.499 13.0851C123.169 12.7313 123.695 12.2582 124.054 11.6592L123.197 11.1448ZM122.032 12.2009C121.517 12.4733 120.892 12.619 120.141 12.619V13.619C121.022 13.619 121.813 13.4474 122.499 13.0851L122.032 12.2009ZM127.908 1.151H128.408V0.651H127.908V1.151ZM127.908 13V13.5H128.408V13H127.908ZM126.361 13H125.861V13.5H126.361V13ZM126.361 1.151V0.651H125.861V1.151H126.361ZM127.408 1.151V13H128.408V1.151H127.408ZM127.908 12.5H126.361V13.5H127.908V12.5ZM126.861 13V1.151H125.861V13H126.861ZM126.361 1.651H127.908V0.651H126.361V1.651ZM137.838 1.151H138.338V0.651H137.838V1.151ZM137.838 2.409V2.909H138.338V2.409H137.838ZM134.608 2.409V1.909H134.108V2.409H134.608ZM134.608 13V13.5H135.108V13H134.608ZM133.061 13H132.561V13.5H133.061V13ZM133.061 2.409H133.561V1.909H133.061V2.409ZM129.814 2.409H129.314V2.909H129.814V2.409ZM129.814 1.151V0.651H129.314V1.151H129.814ZM137.338 1.151V2.409H138.338V1.151H137.338ZM137.838 1.909H134.608V2.909H137.838V1.909ZM134.108 2.409V13H135.108V2.409H134.108ZM134.608 12.5H133.061V13.5H134.608V12.5ZM133.561 13V2.409H132.561V13H133.561ZM133.061 1.909H129.814V2.909H133.061V1.909ZM130.314 2.409V1.151H129.314V2.409H130.314ZM129.814 1.651H137.838V0.651H129.814V1.651ZM141.289 1.151H141.789V0.651H141.289V1.151ZM141.289 13V13.5H141.789V13H141.289ZM139.742 13H139.242V13.5H139.742V13ZM139.742 1.151V0.651H139.242V1.151H139.742ZM140.789 1.151V13H141.789V1.151H140.789ZM141.289 12.5H139.742V13.5H141.289V12.5ZM140.242 13V1.151H139.242V13H140.242ZM139.742 1.651H141.289V0.651H139.742V1.651ZM146.289 12.354L146.039 12.7875L146.044 12.7898L146.289 12.354ZM144.13 10.195L143.694 10.4397L143.697 10.4459L144.13 10.195ZM144.13 3.956L143.696 3.70736L143.695 3.70909L144.13 3.956ZM146.289 1.797L146.534 2.23281L146.538 2.23045L146.289 1.797ZM152.324 1.797L152.074 2.23047L152.079 2.23279L152.324 1.797ZM154.466 3.939L154.9 3.69209L154.466 3.939ZM152.324 12.354L152.569 12.7898L152.573 12.7875L152.324 12.354ZM151.525 11.198L151.275 10.7648L151.272 10.7667L151.525 11.198ZM153.089 9.549L152.649 9.31152L152.646 9.317L153.089 9.549ZM153.089 4.585L152.646 4.81705L152.65 4.82542L153.089 4.585ZM151.542 2.936L151.289 3.36735L151.542 2.936ZM147.054 2.936L147.307 3.36735L147.054 2.936ZM145.49 4.585L145.05 4.34753L145.048 4.35007L145.49 4.585ZM145.49 9.549L145.047 9.78102L145.05 9.78647L145.49 9.549ZM147.054 11.198L146.801 11.6294L146.804 11.6312L147.054 11.198ZM149.298 12.619C148.279 12.619 147.361 12.3837 146.534 11.9182L146.044 12.7898C147.029 13.3443 148.118 13.619 149.298 13.619V12.619ZM146.538 11.9205C145.708 11.4436 145.051 10.7874 144.562 9.94406L143.697 10.4459C144.273 11.4386 145.056 12.2217 146.039 12.7875L146.538 11.9205ZM144.566 9.95037C144.09 9.10202 143.848 8.14481 143.848 7.067H142.848C142.848 8.30119 143.127 9.42931 143.694 10.4396L144.566 9.95037ZM143.848 7.067C143.848 5.98912 144.09 5.03862 144.564 4.20291L143.695 3.70909C143.127 4.70938 142.848 5.83288 142.848 7.067H143.848ZM144.563 4.20464C145.053 3.35113 145.708 2.69721 146.534 2.23279L146.044 1.36121C145.056 1.91679 144.272 2.70221 143.696 3.70736L144.563 4.20464ZM146.538 2.23045C147.365 1.75498 148.281 1.515 149.298 1.515V0.514999C148.116 0.514999 147.026 0.796351 146.039 1.36355L146.538 2.23045ZM149.298 1.515C150.327 1.515 151.248 1.75544 152.074 2.23045L152.573 1.36355C151.586 0.795894 150.49 0.514999 149.298 0.514999V1.515ZM152.079 2.23279C152.905 2.69754 153.554 3.3457 154.031 4.18591L154.9 3.69209C154.335 2.6963 153.556 1.91646 152.569 1.36121L152.079 2.23279ZM154.031 4.18591C154.505 5.02089 154.748 5.97685 154.748 7.067H155.748C155.748 5.82248 155.469 4.69311 154.9 3.69209L154.031 4.18591ZM154.748 7.067C154.748 8.15715 154.505 9.11311 154.031 9.94809L154.9 10.4419C155.469 9.44089 155.748 8.31152 155.748 7.067H154.748ZM154.031 9.94809C153.553 10.7892 152.903 11.4442 152.074 11.9205L152.573 12.7875C153.558 12.2212 154.335 11.4368 154.9 10.4419L154.031 9.94809ZM152.079 11.9182C151.252 12.3833 150.329 12.619 149.298 12.619V13.619C150.488 13.619 151.582 13.3447 152.569 12.7898L152.079 11.9182ZM149.298 12.276C150.206 12.276 151.037 12.0635 151.778 11.6293L151.272 10.7667C150.698 11.1032 150.044 11.276 149.298 11.276V12.276ZM151.774 11.6312C152.529 11.1963 153.116 10.5751 153.532 9.781L152.646 9.317C152.314 9.95087 151.858 10.429 151.275 10.7648L151.774 11.6312ZM153.529 9.78647C153.959 8.98864 154.167 8.07728 154.167 7.067H153.167C153.167 7.93806 152.989 8.68136 152.649 9.31153L153.529 9.78647ZM154.167 7.067C154.167 6.04675 153.96 5.13365 153.527 4.34458L152.65 4.82542C152.988 5.44169 153.167 6.18325 153.167 7.067H154.167ZM153.532 4.353C153.117 3.56108 152.537 2.94011 151.795 2.50465L151.289 3.36735C151.861 3.70255 152.313 4.18092 152.646 4.817L153.532 4.353ZM151.795 2.50465C151.053 2.06993 150.216 1.858 149.298 1.858V2.858C150.057 2.858 150.716 3.03141 151.289 3.36735L151.795 2.50465ZM149.298 1.858C148.379 1.858 147.542 2.06993 146.801 2.50465L147.307 3.36735C147.88 3.03141 148.539 2.858 149.298 2.858V1.858ZM146.801 2.50465C146.059 2.93929 145.476 3.55843 145.05 4.34753L145.93 4.82247C146.275 4.18357 146.733 3.70337 147.307 3.36735L146.801 2.50465ZM145.048 4.35007C144.629 5.13797 144.429 6.04905 144.429 7.067H145.429C145.429 6.18095 145.602 5.43737 145.931 4.81992L145.048 4.35007ZM144.429 7.067C144.429 8.07496 144.629 8.98433 145.047 9.781L145.933 9.317C145.602 8.68567 145.429 7.94038 145.429 7.067H144.429ZM145.05 9.78647C145.476 10.5756 146.059 11.1947 146.801 11.6293L147.307 10.7667C146.733 10.4306 146.275 9.95043 145.93 9.31153L145.05 9.78647ZM146.804 11.6312C147.554 12.0634 148.389 12.276 149.298 12.276V11.276C148.551 11.276 147.891 11.1032 147.303 10.7648L146.804 11.6312ZM166.606 13V13.5H167.106V13H166.606ZM165.059 13L164.642 13.2753L164.79 13.5H165.059V13ZM158.837 3.565L159.254 3.28974L158.337 1.89858V3.565H158.837ZM158.837 13V13.5H159.337V13H158.837ZM157.29 13H156.79V13.5H157.29V13ZM157.29 1.134V0.634H156.79V1.134H157.29ZM158.837 1.134L159.254 0.85839L159.106 0.634H158.837V1.134ZM165.059 10.552L164.642 10.8276L165.559 12.2159V10.552H165.059ZM165.059 1.134V0.634H164.559V1.134H165.059ZM166.606 1.134H167.106V0.634H166.606V1.134ZM166.606 12.5H165.059V13.5H166.606V12.5ZM165.476 12.7247L159.254 3.28974L158.42 3.84026L164.642 13.2753L165.476 12.7247ZM158.337 3.565V13H159.337V3.565H158.337ZM158.837 12.5H157.29V13.5H158.837V12.5ZM157.79 13V1.134H156.79V13H157.79ZM157.29 1.634H158.837V0.634H157.29V1.634ZM158.42 1.40961L164.642 10.8276L165.476 10.2764L159.254 0.85839L158.42 1.40961ZM165.559 10.552V1.134H164.559V10.552H165.559ZM165.059 1.634H166.606V0.634H165.059V1.634ZM166.106 1.134V13H167.106V1.134H166.106ZM170.892 12.711L170.682 13.1648L170.692 13.1693L170.892 12.711ZM169.447 11.555L169.038 11.843L169.041 11.8474L169.447 11.555ZM168.903 9.838V9.338H168.394L168.403 9.84677L168.903 9.838ZM170.552 9.838L171.049 9.78724L171.004 9.338H170.552V9.838ZM171.232 11.249L170.884 11.6076L170.889 11.6127L170.894 11.6176L171.232 11.249ZM174.734 11.266L175.061 11.6442L175.062 11.6435L174.734 11.266ZM175.006 8.733L174.631 9.06331L175.006 8.733ZM174.071 8.087L173.888 8.5522L174.071 8.087ZM172.558 7.611L172.687 7.12802L172.684 7.12719L172.558 7.611ZM170.671 6.999L170.47 7.45684L170.474 7.45857L170.671 6.999ZM169.464 6.047L169.063 6.34535L169.067 6.35115L169.072 6.35682L169.464 6.047ZM169.464 2.562L169.882 2.83716L169.464 2.562ZM170.841 1.406L170.635 0.950511L170.632 0.95202L170.841 1.406ZM175.618 1.831L175.308 2.22329L175.311 2.22568L175.618 1.831ZM176.825 4.041V4.541H177.377L177.323 3.99186L176.825 4.041ZM175.125 4.041L174.629 4.10302L174.684 4.541H175.125V4.041ZM174.411 2.851L174.09 3.23431L174.096 3.23938L174.411 2.851ZM171.164 2.834L171.478 3.22343L171.484 3.21811L171.164 2.834ZM170.909 5.282L170.533 5.61134L170.541 5.61986L170.909 5.282ZM171.81 5.911L171.617 6.3721L171.626 6.3758L171.635 6.37916L171.81 5.911ZM173.323 6.387L173.188 6.8684L173.19 6.86906L173.323 6.387ZM175.21 7.033L175.004 7.48864L175.013 7.49257L175.21 7.033ZM176.434 8.002L176.038 8.30688L176.042 8.31182L176.434 8.002ZM176.485 11.402L176.914 11.6592L176.485 11.402ZM175.125 12.643L174.892 12.2009L175.125 12.643ZM173 12.619C172.277 12.619 171.644 12.4934 171.092 12.2527L170.692 13.1693C171.387 13.4726 172.16 13.619 173 13.619V12.619ZM171.102 12.2573C170.558 12.0055 170.148 11.672 169.853 11.2626L169.041 11.8474C169.449 12.4126 170.002 12.8498 170.682 13.1647L171.102 12.2573ZM169.856 11.267C169.566 10.8552 169.413 10.3814 169.403 9.82923L168.403 9.84677C168.416 10.5866 168.626 11.2575 169.038 11.843L169.856 11.267ZM168.903 10.338H170.552V9.338H168.903V10.338ZM170.055 9.88876C170.123 10.5598 170.402 11.1395 170.884 11.6076L171.58 10.8904C171.269 10.5878 171.094 10.2268 171.049 9.78724L170.055 9.88876ZM170.894 11.6176C171.425 12.1044 172.154 12.31 173 12.31V11.31C172.305 11.31 171.855 11.1416 171.57 10.8804L170.894 11.6176ZM173 12.31C173.817 12.31 174.525 12.1081 175.061 11.6442L174.407 10.8878C174.105 11.1492 173.657 11.31 173 11.31V12.31ZM175.062 11.6435C175.604 11.1731 175.88 10.5586 175.88 9.838H174.88C174.88 10.2734 174.726 10.6109 174.406 10.8885L175.062 11.6435ZM175.88 9.838C175.88 9.28875 175.727 8.7949 175.381 8.40269L174.631 9.06331C174.784 9.23777 174.88 9.48059 174.88 9.838H175.88ZM175.381 8.40269C175.076 8.05593 174.697 7.79627 174.254 7.6218L173.888 8.5522C174.193 8.6724 174.437 8.8434 174.631 9.06331L175.381 8.40269ZM174.254 7.6218C173.855 7.46458 173.331 7.30027 172.687 7.12803L172.429 8.09397C173.055 8.26173 173.539 8.41476 173.888 8.5522L174.254 7.6218ZM172.684 7.12719C171.915 6.92642 171.312 6.72974 170.868 6.53943L170.474 7.45857C170.982 7.67626 171.637 7.88758 172.432 8.09481L172.684 7.12719ZM170.872 6.54118C170.488 6.37273 170.15 6.10893 169.857 5.73718L169.072 6.35682C169.458 6.8464 169.924 7.21727 170.47 7.45682L170.872 6.54118ZM169.865 5.74865C169.619 5.41786 169.471 4.94413 169.471 4.279H168.471C168.471 5.08721 168.651 5.79214 169.063 6.34535L169.865 5.74865ZM169.471 4.279C169.471 3.72247 169.611 3.24745 169.882 2.83716L169.047 2.28684C168.66 2.87388 168.471 3.54353 168.471 4.279H169.471ZM169.882 2.83716C170.154 2.42304 170.538 2.09644 171.051 1.85998L170.632 0.95202C169.965 1.25956 169.431 1.70363 169.047 2.28684L169.882 2.83716ZM171.047 1.86148C171.573 1.62336 172.187 1.498 172.898 1.498V0.498C172.068 0.498 171.31 0.644637 170.635 0.950522L171.047 1.86148ZM172.898 1.498C173.924 1.498 174.713 1.75313 175.308 2.22328L175.928 1.43872C175.118 0.798205 174.094 0.498 172.898 0.498V1.498ZM175.311 2.22568C175.914 2.69497 176.25 3.30552 176.327 4.09014L177.323 3.99186C177.219 2.94047 176.75 2.0777 175.925 1.43632L175.311 2.22568ZM176.825 3.541H175.125V4.541H176.825V3.541ZM175.621 3.97898C175.546 3.37466 175.226 2.86814 174.726 2.46262L174.096 3.23938C174.435 3.51385 174.591 3.80067 174.629 4.10302L175.621 3.97898ZM174.732 2.46774C174.201 2.02284 173.522 1.824 172.745 1.824V2.824C173.351 2.824 173.782 2.97649 174.09 3.23426L174.732 2.46774ZM172.745 1.824C172.008 1.824 171.36 2.01976 170.844 2.44989L171.484 3.21811C171.784 2.96824 172.19 2.824 172.745 2.824V1.824ZM170.85 2.44462C170.306 2.88282 170.052 3.50098 170.052 4.228H171.052C171.052 3.75368 171.206 3.44251 171.478 3.22338L170.85 2.44462ZM170.052 4.228C170.052 4.75538 170.2 5.23128 170.533 5.61125L171.285 4.95275C171.142 4.78872 171.052 4.56196 171.052 4.228H170.052ZM170.541 5.61986C170.84 5.94687 171.201 6.19776 171.617 6.3721L172.003 5.4499C171.717 5.32957 171.477 5.16113 171.278 4.94414L170.541 5.61986ZM171.635 6.37916C172.017 6.52246 172.537 6.68556 173.188 6.86839L173.458 5.90561C172.818 5.72577 172.329 5.57154 171.986 5.44283L171.635 6.37916ZM173.19 6.86906C173.959 7.08081 174.561 7.28811 175.004 7.48855L175.416 6.57745C174.907 6.34722 174.251 6.12386 173.456 5.90494L173.19 6.86906ZM175.013 7.49257C175.405 7.66032 175.746 7.92726 176.038 8.30686L176.83 7.69714C176.442 7.19274 175.968 6.81368 175.407 6.57343L175.013 7.49257ZM176.042 8.31182C176.29 8.627 176.444 9.09394 176.444 9.77H177.444C177.444 8.95006 177.258 8.23833 176.827 7.69218L176.042 8.31182ZM176.444 9.77C176.444 10.2547 176.317 10.7101 176.056 11.1448L176.914 11.6592C177.265 11.0739 177.444 10.4413 177.444 9.77H176.444ZM176.056 11.1448C175.804 11.5658 175.423 11.92 174.892 12.2009L175.359 13.0851C176.028 12.7313 176.554 12.2582 176.914 11.6592L176.056 11.1448ZM174.892 12.2009C174.376 12.4733 173.751 12.619 173 12.619V13.619C173.881 13.619 174.673 13.4474 175.359 13.0851L174.892 12.2009Z" fill="black"/>
</svg>
